<svg width="25" height="25" viewBox="0 0 25 25" fill="none" xmlns="http://www.w3.org/2000/svg">
<path d="M2.17102 2.86584C2.31414 2.4588 2.76013 2.24483 3.16718 2.38795L3.48114 2.49832C4.12334 2.72408 4.6688 2.91583 5.09805 3.12646C5.55704 3.35166 5.95064 3.6291 6.24666 4.06229C6.54039 4.49212 6.66166 4.96371 6.71763 5.48077C6.74268 5.71223 6.7559 5.96841 6.76287 6.25001H17.8443C19.5995 6.25001 21.1795 6.25001 21.6419 6.85113C22.1044 7.45227 21.9236 8.35802 21.562 10.1695L21.0414 12.6953C20.7131 14.2879 20.549 15.0842 19.9743 15.5525C19.3996 16.0208 18.5866 16.0208 16.9605 16.0208H11.4367C8.53156 16.0208 7.07901 16.0208 6.17651 15.069C5.274 14.117 5.20814 13.1058 5.20814 10.0417V7.33159C5.20814 6.56081 5.20707 6.04497 5.1642 5.64891C5.12323 5.27042 5.05063 5.08144 4.9566 4.94385C4.86488 4.80962 4.72564 4.68417 4.40977 4.5292C4.07348 4.36418 3.61645 4.20215 2.92102 3.95765L2.64893 3.86199C2.24188 3.71888 2.02792 3.27289 2.17102 2.86584Z" fill="#262626"/>
<path d="M7.8125 18.75C8.67545 18.75 9.375 19.4496 9.375 20.3125C9.375 21.1754 8.67545 21.875 7.8125 21.875C6.94955 21.875 6.25 21.1754 6.25 20.3125C6.25 19.4496 6.94955 18.75 7.8125 18.75Z" fill="#262626"/>
<path d="M17.1875 18.7501C18.0504 18.7501 18.75 19.4496 18.75 20.3126C18.75 21.1755 18.0504 21.8751 17.1875 21.8751C16.3246 21.8751 15.625 21.1755 15.625 20.3126C15.625 19.4496 16.3246 18.7501 17.1875 18.7501Z" fill="#262626"/>
</svg>
