<svg width="25" height="25" viewBox="0 0 25 25" fill="none" xmlns="http://www.w3.org/2000/svg">
<path fill-rule="evenodd" clip-rule="evenodd" d="M12.4927 5.30928C11.4986 4.43628 10.1909 3.90625 8.75829 3.90625C5.6471 3.90625 3.125 6.40594 3.125 9.48946C3.125 10.9094 3.65249 12.2127 4.53332 13.1979L12.5 21.0937L20.2308 13.4317L20.4594 13.1907C21.3402 12.2054 21.875 10.9094 21.875 9.48946C21.875 6.40594 19.3529 3.90625 16.2417 3.90625C14.8091 3.90625 13.5014 4.43628 12.5073 5.30929L12.5 5.30206L12.4927 5.30928ZM12.5 7.39519L12.5572 7.44536L13.4457 6.56467L13.5383 6.48332C14.2571 5.85215 15.2012 5.46875 16.2417 5.46875C18.5031 5.46875 20.3125 7.28201 20.3125 9.48946C20.3125 10.5014 19.9359 11.4244 19.3086 12.1334L19.1137 12.3389L12.5 18.8939L5.66952 12.1241C5.05618 11.4227 4.6875 10.5009 4.6875 9.48946C4.6875 7.28201 6.49686 5.46875 8.75829 5.46875C9.7987 5.46875 10.7429 5.85215 11.4617 6.48331L11.5543 6.56461L12.4429 7.44533L12.5 7.39519Z" fill="#262626"/>
</svg>
