<svg width="25" height="25" viewBox="0 0 25 25" fill="none" xmlns="http://www.w3.org/2000/svg">
<path fill-rule="evenodd" clip-rule="evenodd" d="M8.59375 9.375C8.59375 7.21764 10.3426 5.46875 12.5 5.46875C14.6574 5.46875 16.4062 7.21764 16.4062 9.375C16.4062 11.5324 14.6574 13.2812 12.5 13.2812C10.3426 13.2812 8.59375 11.5324 8.59375 9.375ZM12.5 7.03125C11.2056 7.03125 10.1562 8.08058 10.1562 9.375C10.1562 10.6694 11.2056 11.7188 12.5 11.7188C13.7944 11.7188 14.8438 10.6694 14.8438 9.375C14.8438 8.08058 13.7944 7.03125 12.5 7.03125Z" fill="#262626"/>
<path fill-rule="evenodd" clip-rule="evenodd" d="M1.30206 12.5C1.30206 6.31557 6.31554 1.30209 12.5 1.30209C18.6845 1.30209 23.6979 6.31557 23.6979 12.5C23.6979 18.6845 18.6845 23.6979 12.5 23.6979C6.31554 23.6979 1.30206 18.6845 1.30206 12.5ZM12.5 2.86459C7.17849 2.86459 2.86456 7.17852 2.86456 12.5C2.86456 15.1517 3.93568 17.5531 5.66883 19.2953C5.85675 18.2817 6.22596 17.3259 6.96703 16.5574C8.07552 15.4078 9.84806 14.8438 12.5 14.8438C15.1517 14.8438 16.9244 15.4078 18.0328 16.5574C18.7739 17.3259 19.1431 18.2818 19.331 19.2954C21.0643 17.5532 22.1354 15.1517 22.1354 12.5C22.1354 7.17852 17.8214 2.86459 12.5 2.86459ZM17.9101 20.4744C17.8039 19.212 17.5298 18.2868 16.9081 17.642C16.2315 16.9404 14.978 16.4063 12.5 16.4063C10.0218 16.4063 8.76832 16.9404 8.0918 17.642C7.47005 18.2868 7.19593 19.2119 7.08979 20.4743C8.6321 21.5227 10.4945 22.1354 12.5 22.1354C14.5054 22.1354 16.3678 21.5227 17.9101 20.4744Z" fill="#262626"/>
</svg>
